<svg width="28" height="28" viewBox="0 0 28 28" fill="none" xmlns="http://www.w3.org/2000/svg">
<path d="M18.6656 3.49991C22.5319 3.49991 25.6667 6.64432 25.6667 10.4931V24.5H9.33449C5.46808 24.5 2.33334 21.3556 2.33334 17.5067V12.4334C3.06329 12.6914 3.84835 12.8333 4.66668 12.8333C8.53267 12.8333 11.6667 9.69925 11.6667 5.83324C11.6667 5.01493 11.5248 4.22986 11.2668 3.49991H18.6656ZM9.33336 15.1666H11.6667V12.8333H9.33336V15.1666ZM16.3333 15.1666H18.6667V12.8333H16.3333V15.1666ZM4.11753 1.53913C4.32348 1.04238 5.00988 1.04238 5.21583 1.53913L5.51091 2.25235C6.01481 3.46894 6.95514 4.44044 8.13706 4.96623L8.97447 5.33878C9.45313 5.55207 9.45307 6.24881 8.97447 6.46216L8.08807 6.85637C6.93581 7.36886 6.01229 8.30595 5.49953 9.48251L5.21128 10.1422C5.00075 10.6253 4.3326 10.6253 4.12208 10.1422L3.83383 9.48251C3.32104 8.30596 2.39757 7.36886 1.24529 6.85637L0.358893 6.46216C-0.119603 6.24881 -0.119659 5.55207 0.358893 5.33878L1.1963 4.96623C2.37819 4.44046 3.31854 3.46897 3.82244 2.25235L4.11753 1.53913Z" fill="white"/>
</svg>
