<svg width="18" height="20" viewBox="0 0 18 20" fill="none" xmlns="http://www.w3.org/2000/svg">
<path d="M16.5 1.5H14.25V0.75C14.25 0.551088 14.171 0.360322 14.0303 0.21967C13.8897 0.0790176 13.6989 0 13.5 0C13.3011 0 13.1103 0.0790176 12.9697 0.21967C12.829 0.360322 12.75 0.551088 12.75 0.75V1.5H5.25V0.75C5.25 0.551088 5.17098 0.360322 5.03033 0.21967C4.88968 0.0790176 4.69891 0 4.5 0C4.30109 0 4.11032 0.0790176 3.96967 0.21967C3.82902 0.360322 3.75 0.551088 3.75 0.75V1.5H1.5C1.10218 1.5 0.720644 1.65804 0.43934 1.93934C0.158035 2.22064 0 2.60218 0 3V18C0 18.3978 0.158035 18.7794 0.43934 19.0607C0.720644 19.342 1.10218 19.5 1.5 19.5H16.5C16.8978 19.5 17.2794 19.342 17.5607 19.0607C17.842 18.7794 18 18.3978 18 18V3C18 2.60218 17.842 2.22064 17.5607 1.93934C17.2794 1.65804 16.8978 1.5 16.5 1.5ZM7.5 15.75C7.5 15.9489 7.42098 16.1397 7.28033 16.2803C7.13968 16.421 6.94891 16.5 6.75 16.5C6.55109 16.5 6.36032 16.421 6.21967 16.2803C6.07902 16.1397 6 15.9489 6 15.75V10.9631L5.58563 11.1713C5.4076 11.2603 5.2015 11.2749 5.01268 11.212C4.82385 11.149 4.66776 11.0137 4.57875 10.8356C4.48974 10.6576 4.47509 10.4515 4.53803 10.2627C4.60097 10.0739 4.73635 9.91776 4.91437 9.82875L6.41437 9.07875C6.52876 9.02151 6.65589 8.99448 6.78367 9.00022C6.91145 9.00596 7.03563 9.04429 7.14442 9.11155C7.25322 9.17882 7.343 9.27279 7.40523 9.38454C7.46747 9.49629 7.50009 9.62209 7.5 9.75V15.75ZM12.75 15C12.9489 15 13.1397 15.079 13.2803 15.2197C13.421 15.3603 13.5 15.5511 13.5 15.75C13.5 15.9489 13.421 16.1397 13.2803 16.2803C13.1397 16.421 12.9489 16.5 12.75 16.5H9.75C9.61072 16.5 9.47418 16.4612 9.3557 16.388C9.23722 16.3148 9.14147 16.21 9.07918 16.0854C9.01689 15.9608 8.99052 15.8214 9.00303 15.6826C9.01554 15.5439 9.06643 15.4114 9.15 15.3L11.8481 11.7028C11.9095 11.6211 11.9535 11.5277 11.9775 11.4284C12.0015 11.3291 12.0049 11.2259 11.9876 11.1252C11.9703 11.0245 11.9325 10.9284 11.8767 10.8428C11.8209 10.7572 11.7482 10.6839 11.6631 10.6274C11.5779 10.5709 11.4821 10.5324 11.3816 10.5143C11.281 10.4961 11.1778 10.4987 11.0783 10.5219C10.9788 10.5451 10.885 10.5884 10.8028 10.6491C10.7206 10.7098 10.6517 10.7867 10.6003 10.875C10.5525 10.963 10.4876 11.0406 10.4093 11.1031C10.3311 11.1656 10.2411 11.2118 10.1447 11.239C10.0483 11.2661 9.94745 11.2737 9.84807 11.2613C9.74869 11.2489 9.65281 11.2166 9.56609 11.1665C9.47936 11.1165 9.40355 11.0495 9.34312 10.9696C9.28269 10.8898 9.23887 10.7986 9.21424 10.7015C9.18962 10.6044 9.18468 10.5034 9.19973 10.4044C9.21478 10.3054 9.24951 10.2104 9.30188 10.125C9.54962 9.69627 9.93188 9.36124 10.3894 9.17184C10.8469 8.98245 11.3541 8.94926 11.8324 9.07743C12.3107 9.2056 12.7333 9.48797 13.0348 9.88076C13.3363 10.2736 13.4998 10.7548 13.5 11.25C13.5016 11.7391 13.3421 12.2152 13.0463 12.6047L11.25 15H12.75ZM1.5 6V3H3.75V3.75C3.75 3.94891 3.82902 4.13968 3.96967 4.28033C4.11032 4.42098 4.30109 4.5 4.5 4.5C4.69891 4.5 4.88968 4.42098 5.03033 4.28033C5.17098 4.13968 5.25 3.94891 5.25 3.75V3H12.75V3.75C12.75 3.94891 12.829 4.13968 12.9697 4.28033C13.1103 4.42098 13.3011 4.5 13.5 4.5C13.6989 4.5 13.8897 4.42098 14.0303 4.28033C14.171 4.13968 14.25 3.94891 14.25 3.75V3H16.5V6H1.5Z" fill="#3B3B3B"/>
</svg>
