<svg width="28" height="28" viewBox="0 0 28 28" fill="none" xmlns="http://www.w3.org/2000/svg">
<path d="M14.7241 13.5089C14.8044 13.6273 14.8545 13.7636 14.87 13.9058C14.8854 14.0481 14.8657 14.192 14.8127 14.3248L13.0627 18.6998C12.9761 18.9154 12.8074 19.0877 12.5938 19.1789C12.3801 19.27 12.139 19.2726 11.9235 19.186C11.708 19.0994 11.5357 18.9308 11.4445 18.7171C11.3533 18.5035 11.3508 18.2624 11.4373 18.0469L12.7072 14.875H10.5C10.3566 14.8752 10.2153 14.8402 10.0886 14.7731C9.96192 14.7059 9.85367 14.6086 9.7734 14.4898C9.69313 14.3709 9.6433 14.2342 9.62829 14.0916C9.61329 13.9489 9.63357 13.8048 9.68734 13.6719L11.4373 9.29688C11.4804 9.19016 11.5441 9.09297 11.6248 9.01086C11.7054 8.92876 11.8015 8.86334 11.9074 8.81835C12.0133 8.77335 12.1271 8.74967 12.2422 8.74864C12.3572 8.74761 12.4714 8.76925 12.5781 8.81234C12.6848 8.85543 12.782 8.91912 12.8641 8.99977C12.9462 9.08042 13.0117 9.17645 13.0567 9.28238C13.1016 9.38832 13.1253 9.50207 13.1264 9.61716C13.1274 9.73224 13.1057 9.84641 13.0627 9.95312L11.7928 13.125H14C14.1429 13.125 14.2835 13.16 14.4098 13.2269C14.536 13.2939 14.6439 13.3907 14.7241 13.5089ZM27.125 9.47516V18.375C27.125 19.0712 26.8484 19.7389 26.3562 20.2312C25.8639 20.7234 25.1962 21 24.5 21C23.8038 21 23.1361 20.7234 22.6438 20.2312C22.1516 19.7389 21.875 19.0712 21.875 18.375V14C21.875 13.7679 21.7828 13.5454 21.6187 13.3813C21.4546 13.2172 21.2321 13.125 21 13.125H19.25V22.75H21C21.2321 22.75 21.4546 22.8422 21.6187 23.0063C21.7828 23.1704 21.875 23.3929 21.875 23.625C21.875 23.8571 21.7828 24.0796 21.6187 24.2437C21.4546 24.4078 21.2321 24.5 21 24.5H3.5C3.26794 24.5 3.04538 24.4078 2.88128 24.2437C2.71719 24.0796 2.625 23.8571 2.625 23.625C2.625 23.3929 2.71719 23.1704 2.88128 23.0063C3.04538 22.8422 3.26794 22.75 3.5 22.75H5.25V6.125C5.25 5.42881 5.52656 4.76113 6.01884 4.26884C6.51113 3.77656 7.17881 3.5 7.875 3.5H16.625C17.3212 3.5 17.9889 3.77656 18.4812 4.26884C18.9734 4.76113 19.25 5.42881 19.25 6.125V11.375H21C21.6962 11.375 22.3639 11.6516 22.8562 12.1438C23.3484 12.6361 23.625 13.3038 23.625 14V18.375C23.625 18.6071 23.7172 18.8296 23.8813 18.9937C24.0454 19.1578 24.2679 19.25 24.5 19.25C24.7321 19.25 24.9546 19.1578 25.1187 18.9937C25.2828 18.8296 25.375 18.6071 25.375 18.375V9.47516C25.3743 9.24416 25.2823 9.02281 25.1191 8.85938L23.0059 6.74406C22.8418 6.57988 22.7495 6.35719 22.7495 6.125C22.7495 5.89281 22.8418 5.67012 23.0059 5.50594C23.1701 5.34175 23.3928 5.24951 23.625 5.24951C23.8572 5.24951 24.0799 5.34175 24.2441 5.50594L26.3594 7.61906C26.6033 7.86253 26.7965 8.15192 26.9279 8.4705C27.0593 8.78908 27.1263 9.13054 27.125 9.47516ZM17.5 22.75V6.125C17.5 5.89294 17.4078 5.67038 17.2437 5.50628C17.0796 5.34219 16.8571 5.25 16.625 5.25H7.875C7.64294 5.25 7.42038 5.34219 7.25628 5.50628C7.09219 5.67038 7 5.89294 7 6.125V22.75H17.5Z" fill="#0D0D0D"/>
</svg>
