<svg width="28" height="28" viewBox="0 0 28 28" fill="none" xmlns="http://www.w3.org/2000/svg">
<path d="M24.3217 17.3316L19.1691 15.0227L19.1549 15.0161C18.8874 14.9017 18.5956 14.8558 18.3058 14.8825C18.0161 14.9093 17.7377 15.0078 17.4956 15.1692C17.4671 15.1881 17.4397 15.2085 17.4136 15.2305L14.7514 17.5C13.0649 16.6808 11.3236 14.9527 10.5044 13.288L12.7772 10.5853C12.7991 10.558 12.8199 10.5306 12.8395 10.5011C12.9975 10.2597 13.0934 9.98303 13.1185 9.69565C13.1437 9.40827 13.0975 9.11912 12.9839 8.85393V8.8408L10.6684 3.6794C10.5183 3.33297 10.2602 3.04438 9.93256 2.85672C9.60494 2.66906 9.22541 2.59239 8.85063 2.63815C7.36857 2.83317 6.00817 3.56102 5.02353 4.68575C4.03889 5.81048 3.49733 7.25518 3.50001 8.75002C3.50001 17.4344 10.5656 24.5 19.25 24.5C20.7448 24.5027 22.1895 23.9611 23.3143 22.9765C24.439 21.9919 25.1669 20.6315 25.3619 19.1494C25.4077 18.7747 25.3312 18.3953 25.1438 18.0677C24.9563 17.7401 24.668 17.4819 24.3217 17.3316ZM19.25 22.75C15.5382 22.746 11.9796 21.2697 9.35499 18.645C6.73036 16.0204 5.25406 12.4618 5.25001 8.75002C5.2459 7.68196 5.63069 6.64892 6.33253 5.84383C7.03438 5.03873 8.00528 4.51663 9.06392 4.37502C9.06349 4.37939 9.06349 4.38378 9.06392 4.38815L11.3608 9.52877L9.10001 12.2347C9.07706 12.2611 9.05622 12.2893 9.03767 12.3189C8.87307 12.5715 8.77652 12.8623 8.75735 13.1632C8.73819 13.464 8.79707 13.7647 8.92829 14.0361C9.91923 16.0628 11.9613 18.0896 14.0099 19.0794C14.2833 19.2094 14.5857 19.2662 14.8876 19.2444C15.1896 19.2225 15.4807 19.1227 15.7325 18.9547C15.7606 18.9358 15.7876 18.9153 15.8134 18.8935L18.4724 16.625L23.613 18.9274C23.613 18.9274 23.6217 18.9274 23.625 18.9274C23.4851 19.9875 22.9638 20.9604 22.1586 21.6639C21.3533 22.3675 20.3193 22.7536 19.25 22.75Z" fill="#DC2928"/>
</svg>
