<svg width="26" height="26" viewBox="0 0 26 26" fill="none" xmlns="http://www.w3.org/2000/svg">
<path d="M11.375 8.125C11.375 7.80361 11.4703 7.48943 11.6489 7.2222C11.8274 6.95497 12.0812 6.74669 12.3781 6.6237C12.6751 6.5007 13.0018 6.46852 13.317 6.53122C13.6322 6.59392 13.9218 6.74869 14.149 6.97595C14.3763 7.20321 14.5311 7.49276 14.5938 7.80798C14.6565 8.1232 14.6243 8.44993 14.5013 8.74686C14.3783 9.04379 14.17 9.29758 13.9028 9.47614C13.6356 9.6547 13.3214 9.75 13 9.75C12.569 9.75 12.1557 9.57879 11.851 9.27405C11.5462 8.9693 11.375 8.55598 11.375 8.125ZM6.5 8.125C6.5 6.40109 7.18482 4.74779 8.40381 3.52881C9.62279 2.30982 11.2761 1.625 13 1.625C14.7239 1.625 16.3772 2.30982 17.5962 3.52881C18.8152 4.74779 19.5 6.40109 19.5 8.125C19.5 14.2137 13.652 17.6252 13.4062 17.7684C13.2835 17.8385 13.1445 17.8755 13.003 17.8755C12.8616 17.8755 12.7226 17.8385 12.5998 17.7684C12.348 17.6252 6.5 14.2188 6.5 8.125ZM8.125 8.125C8.125 12.4109 11.765 15.2557 13 16.0977C14.234 15.2567 17.875 12.4109 17.875 8.125C17.875 6.83207 17.3614 5.59209 16.4471 4.67785C15.5329 3.76361 14.2929 3.25 13 3.25C11.7071 3.25 10.4671 3.76361 9.55285 4.67785C8.63861 5.59209 8.125 6.83207 8.125 8.125ZM20.5938 14.9937C20.3939 14.9276 20.176 14.9418 19.9863 15.0332C19.7966 15.1246 19.6497 15.2861 19.5768 15.4837C19.5038 15.6812 19.5104 15.8994 19.5952 16.0922C19.6799 16.285 19.8363 16.4373 20.0312 16.5171C21.708 17.1377 22.75 17.9684 22.75 18.6875C22.75 20.0444 19.0409 21.9375 13 21.9375C6.95906 21.9375 3.25 20.0444 3.25 18.6875C3.25 17.9684 4.29203 17.1377 5.96883 16.5181C6.16374 16.4383 6.32006 16.286 6.40482 16.0932C6.48959 15.9004 6.49619 15.6822 6.42322 15.4847C6.35026 15.2871 6.20343 15.1256 6.0137 15.0342C5.82396 14.9428 5.60615 14.9286 5.40617 14.9947C2.96766 15.8935 1.625 17.2057 1.625 18.6875C1.625 21.8542 7.48617 23.5625 13 23.5625C18.5138 23.5625 24.375 21.8542 24.375 18.6875C24.375 17.2057 23.0323 15.8935 20.5938 14.9937Z" fill="#0D0D0D"/>
</svg>
