<svg width="26" height="26" viewBox="0 0 26 26" fill="none" xmlns="http://www.w3.org/2000/svg">
<path d="M10.5625 4.0625H5.6875C5.25652 4.0625 4.8432 4.2337 4.53845 4.53845C4.2337 4.8432 4.0625 5.25652 4.0625 5.6875V10.5625C4.0625 10.9935 4.2337 11.4068 4.53845 11.7115C4.8432 12.0163 5.25652 12.1875 5.6875 12.1875H10.5625C10.9935 12.1875 11.4068 12.0163 11.7115 11.7115C12.0163 11.4068 12.1875 10.9935 12.1875 10.5625V5.6875C12.1875 5.25652 12.0163 4.8432 11.7115 4.53845C11.4068 4.2337 10.9935 4.0625 10.5625 4.0625ZM10.5625 10.5625H5.6875V5.6875H10.5625V10.5625ZM10.5625 13.8125H5.6875C5.25652 13.8125 4.8432 13.9837 4.53845 14.2885C4.2337 14.5932 4.0625 15.0065 4.0625 15.4375V20.3125C4.0625 20.7435 4.2337 21.1568 4.53845 21.4615C4.8432 21.7663 5.25652 21.9375 5.6875 21.9375H10.5625C10.9935 21.9375 11.4068 21.7663 11.7115 21.4615C12.0163 21.1568 12.1875 20.7435 12.1875 20.3125V15.4375C12.1875 15.0065 12.0163 14.5932 11.7115 14.2885C11.4068 13.9837 10.9935 13.8125 10.5625 13.8125ZM10.5625 20.3125H5.6875V15.4375H10.5625V20.3125ZM20.3125 4.0625H15.4375C15.0065 4.0625 14.5932 4.2337 14.2885 4.53845C13.9837 4.8432 13.8125 5.25652 13.8125 5.6875V10.5625C13.8125 10.9935 13.9837 11.4068 14.2885 11.7115C14.5932 12.0163 15.0065 12.1875 15.4375 12.1875H20.3125C20.7435 12.1875 21.1568 12.0163 21.4615 11.7115C21.7663 11.4068 21.9375 10.9935 21.9375 10.5625V5.6875C21.9375 5.25652 21.7663 4.8432 21.4615 4.53845C21.1568 4.2337 20.7435 4.0625 20.3125 4.0625ZM20.3125 10.5625H15.4375V5.6875H20.3125V10.5625ZM13.8125 17.875V14.625C13.8125 14.4095 13.8981 14.2028 14.0505 14.0505C14.2028 13.8981 14.4095 13.8125 14.625 13.8125C14.8405 13.8125 15.0472 13.8981 15.1995 14.0505C15.3519 14.2028 15.4375 14.4095 15.4375 14.625V17.875C15.4375 18.0905 15.3519 18.2972 15.1995 18.4495C15.0472 18.6019 14.8405 18.6875 14.625 18.6875C14.4095 18.6875 14.2028 18.6019 14.0505 18.4495C13.8981 18.2972 13.8125 18.0905 13.8125 17.875ZM21.9375 16.25C21.9375 16.4655 21.8519 16.6722 21.6995 16.8245C21.5472 16.9769 21.3405 17.0625 21.125 17.0625H18.6875V21.125C18.6875 21.3405 18.6019 21.5472 18.4495 21.6995C18.2972 21.8519 18.0905 21.9375 17.875 21.9375H14.625C14.4095 21.9375 14.2028 21.8519 14.0505 21.6995C13.8981 21.5472 13.8125 21.3405 13.8125 21.125C13.8125 20.9095 13.8981 20.7028 14.0505 20.5505C14.2028 20.3981 14.4095 20.3125 14.625 20.3125H17.0625V14.625C17.0625 14.4095 17.1481 14.2028 17.3005 14.0505C17.4528 13.8981 17.6595 13.8125 17.875 13.8125C18.0905 13.8125 18.2972 13.8981 18.4495 14.0505C18.6019 14.2028 18.6875 14.4095 18.6875 14.625V15.4375H21.125C21.3405 15.4375 21.5472 15.5231 21.6995 15.6755C21.8519 15.8278 21.9375 16.0345 21.9375 16.25ZM21.9375 19.5V21.125C21.9375 21.3405 21.8519 21.5472 21.6995 21.6995C21.5472 21.8519 21.3405 21.9375 21.125 21.9375C20.9095 21.9375 20.7028 21.8519 20.5505 21.6995C20.3981 21.5472 20.3125 21.3405 20.3125 21.125V19.5C20.3125 19.2845 20.3981 19.0778 20.5505 18.9255C20.7028 18.7731 20.9095 18.6875 21.125 18.6875C21.3405 18.6875 21.5472 18.7731 21.6995 18.9255C21.8519 19.0778 21.9375 19.2845 21.9375 19.5Z" fill="#0D0D0D"/>
</svg>
