<svg width="52" height="52" viewBox="0 0 52 52" fill="none" xmlns="http://www.w3.org/2000/svg">
<rect x="0.5" y="0.5" width="51" height="51" rx="13.5" fill="black"/>
<rect x="0.5" y="0.5" width="51" height="51" rx="13.5" stroke="url(#paint0_linear_540_1042)"/>
<path d="M30.6656 15.4999C34.5319 15.4999 37.6667 18.6443 37.6667 22.4931V36.5H21.3345C17.4681 36.5 14.3333 33.3556 14.3333 29.5067V24.4334C15.0633 24.6914 15.8484 24.8333 16.6667 24.8333C20.5327 24.8333 23.6667 21.6993 23.6667 17.8332C23.6667 17.0149 23.5248 16.2299 23.2668 15.4999H30.6656ZM21.3334 27.1666H23.6667V24.8333H21.3334V27.1666ZM28.3333 27.1666H30.6667V24.8333H28.3333V27.1666ZM16.1175 13.5391C16.3235 13.0424 17.0099 13.0424 17.2158 13.5391L17.5109 14.2523C18.0148 15.4689 18.9551 16.4404 20.1371 16.9662L20.9745 17.3388C21.4531 17.5521 21.4531 18.2488 20.9745 18.4622L20.0881 18.8564C18.9358 19.3689 18.0123 20.3059 17.4995 21.4825L17.2113 22.1422C17.0008 22.6253 16.3326 22.6253 16.1221 22.1422L15.8338 21.4825C15.321 20.306 14.3976 19.3689 13.2453 18.8564L12.3589 18.4622C11.8804 18.2488 11.8803 17.5521 12.3589 17.3388L13.1963 16.9662C14.3782 16.4405 15.3185 15.469 15.8224 14.2523L16.1175 13.5391Z" fill="white"/>
<defs>
<linearGradient id="paint0_linear_540_1042" x1="11" y1="0.999999" x2="44.5" y2="52" gradientUnits="userSpaceOnUse">
<stop stop-color="#666666"/>
<stop offset="0.5" stop-color="#2D2D2D"/>
<stop offset="1" stop-color="#666666"/>
</linearGradient>
</defs>
</svg>
