<svg width="54" height="54" viewBox="0 0 54 54" fill="none" xmlns="http://www.w3.org/2000/svg">
<rect x="0.25" y="0.25" width="53.5" height="53.5" rx="5.75" stroke="url(#paint0_linear_540_708)" stroke-opacity="0.7" stroke-width="0.5"/>
<g filter="url(#filter0_f_540_708)">
<path d="M34.5 18H32.25V17.25C32.25 17.0511 32.171 16.8603 32.0303 16.7197C31.8897 16.579 31.6989 16.5 31.5 16.5C31.3011 16.5 31.1103 16.579 30.9697 16.7197C30.829 16.8603 30.75 17.0511 30.75 17.25V18H23.25V17.25C23.25 17.0511 23.171 16.8603 23.0303 16.7197C22.8897 16.579 22.6989 16.5 22.5 16.5C22.3011 16.5 22.1103 16.579 21.9697 16.7197C21.829 16.8603 21.75 17.0511 21.75 17.25V18H19.5C19.1022 18 18.7206 18.158 18.4393 18.4393C18.158 18.7206 18 19.1022 18 19.5V34.5C18 34.8978 18.158 35.2794 18.4393 35.5607C18.7206 35.842 19.1022 36 19.5 36H34.5C34.8978 36 35.2794 35.842 35.5607 35.5607C35.842 35.2794 36 34.8978 36 34.5V19.5C36 19.1022 35.842 18.7206 35.5607 18.4393C35.2794 18.158 34.8978 18 34.5 18ZM25.5 32.25C25.5 32.4489 25.421 32.6397 25.2803 32.7803C25.1397 32.921 24.9489 33 24.75 33C24.5511 33 24.3603 32.921 24.2197 32.7803C24.079 32.6397 24 32.4489 24 32.25V27.4631L23.5856 27.6713C23.4076 27.7603 23.2015 27.7749 23.0127 27.712C22.8239 27.649 22.6678 27.5137 22.5787 27.3356C22.4897 27.1576 22.4751 26.9515 22.538 26.7627C22.601 26.5739 22.7363 26.4178 22.9144 26.3287L24.4144 25.5787C24.5288 25.5215 24.6559 25.4945 24.7837 25.5002C24.9114 25.506 25.0356 25.5443 25.1444 25.6116C25.2532 25.6788 25.343 25.7728 25.4052 25.8845C25.4675 25.9963 25.5001 26.1221 25.5 26.25V32.25ZM30.75 31.5C30.9489 31.5 31.1397 31.579 31.2803 31.7197C31.421 31.8603 31.5 32.0511 31.5 32.25C31.5 32.4489 31.421 32.6397 31.2803 32.7803C31.1397 32.921 30.9489 33 30.75 33H27.75C27.6107 33 27.4742 32.9612 27.3557 32.888C27.2372 32.8148 27.1415 32.71 27.0792 32.5854C27.0169 32.4608 26.9905 32.3214 27.003 32.1826C27.0155 32.0439 27.0664 31.9114 27.15 31.8L29.8481 28.2028C29.9095 28.1211 29.9535 28.0277 29.9775 27.9284C30.0015 27.8291 30.0049 27.7259 29.9876 27.6252C29.9703 27.5245 29.9325 27.4284 29.8767 27.3428C29.8209 27.2572 29.7482 27.1839 29.6631 27.1274C29.5779 27.0709 29.4821 27.0324 29.3816 27.0143C29.281 26.9961 29.1778 26.9987 29.0783 27.0219C28.9788 27.0451 28.885 27.0884 28.8028 27.1491C28.7206 27.2098 28.6517 27.2867 28.6003 27.375C28.5525 27.463 28.4876 27.5406 28.4093 27.6031C28.3311 27.6656 28.2411 27.7118 28.1447 27.739C28.0483 27.7661 27.9474 27.7737 27.8481 27.7613C27.7487 27.7489 27.6528 27.7166 27.5661 27.6665C27.4794 27.6165 27.4035 27.5495 27.3431 27.4696C27.2827 27.3898 27.2389 27.2986 27.2142 27.2015C27.1896 27.1044 27.1847 27.0034 27.1997 26.9044C27.2148 26.8054 27.2495 26.7104 27.3019 26.625C27.5496 26.1963 27.9319 25.8612 28.3894 25.6718C28.8469 25.4824 29.3541 25.4493 29.8324 25.5774C30.3107 25.7056 30.7333 25.988 31.0348 26.3808C31.3363 26.7736 31.4998 27.2548 31.5 27.75C31.5016 28.2391 31.3421 28.7152 31.0463 29.1047L29.25 31.5H30.75ZM19.5 22.5V19.5H21.75V20.25C21.75 20.4489 21.829 20.6397 21.9697 20.7803C22.1103 20.921 22.3011 21 22.5 21C22.6989 21 22.8897 20.921 23.0303 20.7803C23.171 20.6397 23.25 20.4489 23.25 20.25V19.5H30.75V20.25C30.75 20.4489 30.829 20.6397 30.9697 20.7803C31.1103 20.921 31.3011 21 31.5 21C31.6989 21 31.8897 20.921 32.0303 20.7803C32.171 20.6397 32.25 20.4489 32.25 20.25V19.5H34.5V22.5H19.5Z" fill="#3B3B3B"/>
</g>
<defs>
<filter id="filter0_f_540_708" x="9" y="9" width="36" height="36" filterUnits="userSpaceOnUse" color-interpolation-filters="sRGB">
<feFlood flood-opacity="0" result="BackgroundImageFix"/>
<feBlend mode="normal" in="SourceGraphic" in2="BackgroundImageFix" result="shape"/>
<feGaussianBlur stdDeviation="3" result="effect1_foregroundBlur_540_708"/>
</filter>
<linearGradient id="paint0_linear_540_708" x1="54" y1="27" x2="0" y2="27" gradientUnits="userSpaceOnUse">
<stop stop-color="#F9F9FB"/>
<stop offset="1" stop-color="white"/>
</linearGradient>
</defs>
</svg>
