<svg width="16" height="16" viewBox="0 0 16 16" fill="none" xmlns="http://www.w3.org/2000/svg">
<path d="M12.3754 4V10.5C12.3754 10.5995 12.3359 10.6948 12.2656 10.7652C12.1953 10.8355 12.0999 10.875 12.0004 10.875C11.901 10.875 11.8056 10.8355 11.7352 10.7652C11.6649 10.6948 11.6254 10.5995 11.6254 10.5V4.905L4.26541 12.265C4.19432 12.3312 4.1003 12.3673 4.00315 12.3656C3.906 12.3639 3.81331 12.3245 3.7446 12.2558C3.67589 12.1871 3.63654 12.0944 3.63482 11.9973C3.63311 11.9001 3.66917 11.8061 3.73541 11.735L11.0954 4.375H5.50041C5.40096 4.375 5.30557 4.33549 5.23525 4.26516C5.16492 4.19484 5.12541 4.09946 5.12541 4C5.12541 3.90054 5.16492 3.80516 5.23525 3.73483C5.30557 3.66451 5.40096 3.625 5.50041 3.625H12.0004C12.0999 3.625 12.1953 3.66451 12.2656 3.73483C12.3359 3.80516 12.3754 3.90054 12.3754 4Z" fill="#A0A0A0"/>
</svg>
