<svg width="48" height="48" viewBox="0 0 48 48" fill="none" xmlns="http://www.w3.org/2000/svg">
<rect width="48" height="48" rx="24" fill="white"/>
<path d="M28.6875 15.75C26.7516 15.75 25.0566 16.5825 24 17.9897C22.9434 16.5825 21.2484 15.75 19.3125 15.75C17.7715 15.7517 16.294 16.3647 15.2044 17.4544C14.1147 18.544 13.5017 20.0215 13.5 21.5625C13.5 28.125 23.2303 33.4369 23.6447 33.6562C23.7539 33.715 23.876 33.7458 24 33.7458C24.124 33.7458 24.2461 33.715 24.3553 33.6562C24.7697 33.4369 34.5 28.125 34.5 21.5625C34.4983 20.0215 33.8853 18.544 32.7956 17.4544C31.706 16.3647 30.2285 15.7517 28.6875 15.75ZM24 32.1375C22.2881 31.14 15 26.5959 15 21.5625C15.0015 20.4192 15.4563 19.3232 16.2647 18.5147C17.0732 17.7063 18.1692 17.2515 19.3125 17.25C21.1359 17.25 22.6669 18.2213 23.3062 19.7812C23.3628 19.9188 23.4589 20.0365 23.5824 20.1193C23.7059 20.2021 23.8513 20.2463 24 20.2463C24.1487 20.2463 24.2941 20.2021 24.4176 20.1193C24.5411 20.0365 24.6372 19.9188 24.6937 19.7812C25.3331 18.2184 26.8641 17.25 28.6875 17.25C29.8308 17.2515 30.9268 17.7063 31.7353 18.5147C32.5437 19.3232 32.9985 20.4192 33 21.5625C33 26.5884 25.71 31.1391 24 32.1375Z" fill="#0D0D0D"/>
</svg>
