<svg width="16" height="16" viewBox="0 0 16 16" fill="none" xmlns="http://www.w3.org/2000/svg">
<path d="M10.6663 14V12.6667C10.6663 11.9594 10.3854 11.2811 9.8853 10.781C9.3852 10.281 8.70692 10 7.99968 10H3.99968C3.29243 10 2.61415 10.281 2.11406 10.781C1.61396 11.2811 1.33301 11.9594 1.33301 12.6667V14" stroke="#0A0A0A" stroke-opacity="0.4" stroke-linecap="round" stroke-linejoin="round"/>
<path d="M10.667 2.08533C11.2388 2.23357 11.7453 2.5675 12.1068 3.0347C12.4683 3.5019 12.6645 4.07592 12.6645 4.66666C12.6645 5.2574 12.4683 5.83142 12.1068 6.29862C11.7453 6.76582 11.2388 7.09975 10.667 7.24799" stroke="#0A0A0A" stroke-opacity="0.4" stroke-linecap="round" stroke-linejoin="round"/>
<path d="M14.667 14V12.6667C14.6666 12.0758 14.4699 11.5019 14.1079 11.0349C13.7459 10.5679 13.2391 10.2344 12.667 10.0867" stroke="#0A0A0A" stroke-opacity="0.4" stroke-linecap="round" stroke-linejoin="round"/>
<path d="M5.99967 7.33333C7.47243 7.33333 8.66634 6.13943 8.66634 4.66667C8.66634 3.19391 7.47243 2 5.99967 2C4.52691 2 3.33301 3.19391 3.33301 4.66667C3.33301 6.13943 4.52691 7.33333 5.99967 7.33333Z" stroke="#0A0A0A" stroke-opacity="0.4" stroke-linecap="round" stroke-linejoin="round"/>
</svg>
