<svg width="48" height="48" viewBox="0 0 48 48" fill="none" xmlns="http://www.w3.org/2000/svg">
<rect x="0.5" y="0.5" width="47" height="47" rx="11.5" fill="#F6F7F9"/>
<rect x="0.5" y="0.5" width="47" height="47" rx="11.5" stroke="white"/>
<path d="M34.3217 27.3316L29.1691 25.0227L29.1549 25.0161C28.8874 24.9017 28.5956 24.8558 28.3058 24.8825C28.0161 24.9093 27.7377 25.0078 27.4956 25.1692C27.4671 25.1881 27.4397 25.2085 27.4136 25.2305L24.7514 27.5C23.0649 26.6808 21.3236 24.9527 20.5044 23.288L22.7772 20.5853C22.7991 20.558 22.8199 20.5306 22.8395 20.5011C22.9975 20.2597 23.0934 19.983 23.1185 19.6956C23.1437 19.4083 23.0975 19.1191 22.9839 18.8539V18.8408L20.6684 13.6794C20.5183 13.333 20.2602 13.0444 19.9326 12.8567C19.6049 12.6691 19.2254 12.5924 18.8506 12.6381C17.3686 12.8332 16.0082 13.561 15.0235 14.6858C14.0389 15.8105 13.4973 17.2552 13.5 18.75C13.5 27.4344 20.5656 34.5 29.25 34.5C30.7448 34.5027 32.1895 33.9611 33.3143 32.9765C34.439 31.9919 35.1669 30.6315 35.3619 29.1494C35.4077 28.7747 35.3312 28.3953 35.1438 28.0677C34.9563 27.7401 34.668 27.4819 34.3217 27.3316ZM29.25 32.75C25.5382 32.746 21.9796 31.2697 19.355 28.645C16.7304 26.0204 15.2541 22.4618 15.25 18.75C15.2459 17.682 15.6307 16.6489 16.3325 15.8438C17.0344 15.0387 18.0053 14.5166 19.0639 14.375C19.0635 14.3794 19.0635 14.3838 19.0639 14.3881L21.3608 19.5288L19.1 22.2347C19.0771 22.2611 19.0562 22.2893 19.0377 22.3189C18.8731 22.5715 18.7765 22.8623 18.7574 23.1632C18.7382 23.464 18.7971 23.7647 18.9283 24.0361C19.9192 26.0628 21.9613 28.0896 24.0099 29.0794C24.2833 29.2094 24.5857 29.2662 24.8876 29.2444C25.1896 29.2225 25.4807 29.1227 25.7325 28.9547C25.7606 28.9358 25.7876 28.9153 25.8134 28.8935L28.4724 26.625L33.613 28.9274C33.613 28.9274 33.6217 28.9274 33.625 28.9274C33.4851 29.9875 32.9638 30.9604 32.1586 31.6639C31.3533 32.3675 30.3193 32.7536 29.25 32.75Z" fill="#DC2928"/>
</svg>
