<svg width="24" height="24" viewBox="0 0 24 24" fill="none" xmlns="http://www.w3.org/2000/svg">
<path d="M21.3112 4.5703C21.1803 4.51085 21.0351 4.49029 20.8928 4.51107C20.7505 4.53184 20.6172 4.59308 20.5087 4.68749C17.8837 6.95811 15.66 5.85749 13.0828 4.58155C10.4128 3.25874 7.38562 1.76155 4.00875 4.68749C3.92806 4.75742 3.86324 4.84378 3.81862 4.94079C3.774 5.03779 3.7506 5.14321 3.75 5.24999V21C3.75 21.1989 3.82902 21.3897 3.96967 21.5303C4.11032 21.671 4.30109 21.75 4.5 21.75C4.69891 21.75 4.88968 21.671 5.03033 21.5303C5.17098 21.3897 5.25 21.1989 5.25 21V16.8534C7.76156 14.8697 9.92531 15.9394 12.4172 17.1731C13.9547 17.9334 15.6103 18.7528 17.3859 18.7528C18.6919 18.7528 20.0616 18.3075 21.4941 17.0653C21.5747 16.9954 21.6396 16.909 21.6842 16.812C21.7288 16.715 21.7522 16.6096 21.7528 16.5028V5.24999C21.7521 5.1063 21.71 4.96585 21.6318 4.84536C21.5535 4.72486 21.4422 4.62939 21.3112 4.5703ZM5.25 15.0412V10.3012C6.82969 9.24374 8.31 9.21467 9.75 9.61311V14.4637C8.33156 14.1065 6.83156 14.129 5.25 15.0412ZM9.75 4.76905C10.6172 5.03436 11.4947 5.46749 12.4172 5.92405C13.4728 6.44624 14.5837 6.99561 15.75 7.28905V12.1397C17.1891 12.5381 18.6694 12.509 20.25 11.4506V16.1484C18.6684 17.3972 17.2247 17.4347 15.75 16.9837V12.1397C13.7231 11.5772 11.7769 10.1709 9.75 9.61311V4.76905Z" fill="#A0A0A0"/>
</svg>
