<svg width="46" height="46" viewBox="0 0 46 46" fill="none" xmlns="http://www.w3.org/2000/svg">
<rect x="0.5" y="0.5" width="45" height="45" rx="11.5" fill="#F6F7F9"/>
<rect x="0.5" y="0.5" width="45" height="45" rx="11.5" stroke="white"/>
<path d="M20.5625 14.0625H15.6875C15.2565 14.0625 14.8432 14.2337 14.5385 14.5385C14.2337 14.8432 14.0625 15.2565 14.0625 15.6875V20.5625C14.0625 20.9935 14.2337 21.4068 14.5385 21.7115C14.8432 22.0163 15.2565 22.1875 15.6875 22.1875H20.5625C20.9935 22.1875 21.4068 22.0163 21.7115 21.7115C22.0163 21.4068 22.1875 20.9935 22.1875 20.5625V15.6875C22.1875 15.2565 22.0163 14.8432 21.7115 14.5385C21.4068 14.2337 20.9935 14.0625 20.5625 14.0625ZM20.5625 20.5625H15.6875V15.6875H20.5625V20.5625ZM20.5625 23.8125H15.6875C15.2565 23.8125 14.8432 23.9837 14.5385 24.2885C14.2337 24.5932 14.0625 25.0065 14.0625 25.4375V30.3125C14.0625 30.7435 14.2337 31.1568 14.5385 31.4615C14.8432 31.7663 15.2565 31.9375 15.6875 31.9375H20.5625C20.9935 31.9375 21.4068 31.7663 21.7115 31.4615C22.0163 31.1568 22.1875 30.7435 22.1875 30.3125V25.4375C22.1875 25.0065 22.0163 24.5932 21.7115 24.2885C21.4068 23.9837 20.9935 23.8125 20.5625 23.8125ZM20.5625 30.3125H15.6875V25.4375H20.5625V30.3125ZM30.3125 14.0625H25.4375C25.0065 14.0625 24.5932 14.2337 24.2885 14.5385C23.9837 14.8432 23.8125 15.2565 23.8125 15.6875V20.5625C23.8125 20.9935 23.9837 21.4068 24.2885 21.7115C24.5932 22.0163 25.0065 22.1875 25.4375 22.1875H30.3125C30.7435 22.1875 31.1568 22.0163 31.4615 21.7115C31.7663 21.4068 31.9375 20.9935 31.9375 20.5625V15.6875C31.9375 15.2565 31.7663 14.8432 31.4615 14.5385C31.1568 14.2337 30.7435 14.0625 30.3125 14.0625ZM30.3125 20.5625H25.4375V15.6875H30.3125V20.5625ZM23.8125 27.875V24.625C23.8125 24.4095 23.8981 24.2028 24.0505 24.0505C24.2028 23.8981 24.4095 23.8125 24.625 23.8125C24.8405 23.8125 25.0472 23.8981 25.1995 24.0505C25.3519 24.2028 25.4375 24.4095 25.4375 24.625V27.875C25.4375 28.0905 25.3519 28.2972 25.1995 28.4495C25.0472 28.6019 24.8405 28.6875 24.625 28.6875C24.4095 28.6875 24.2028 28.6019 24.0505 28.4495C23.8981 28.2972 23.8125 28.0905 23.8125 27.875ZM31.9375 26.25C31.9375 26.4655 31.8519 26.6722 31.6995 26.8245C31.5472 26.9769 31.3405 27.0625 31.125 27.0625H28.6875V31.125C28.6875 31.3405 28.6019 31.5472 28.4495 31.6995C28.2972 31.8519 28.0905 31.9375 27.875 31.9375H24.625C24.4095 31.9375 24.2028 31.8519 24.0505 31.6995C23.8981 31.5472 23.8125 31.3405 23.8125 31.125C23.8125 30.9095 23.8981 30.7028 24.0505 30.5505C24.2028 30.3981 24.4095 30.3125 24.625 30.3125H27.0625V24.625C27.0625 24.4095 27.1481 24.2028 27.3005 24.0505C27.4528 23.8981 27.6595 23.8125 27.875 23.8125C28.0905 23.8125 28.2972 23.8981 28.4495 24.0505C28.6019 24.2028 28.6875 24.4095 28.6875 24.625V25.4375H31.125C31.3405 25.4375 31.5472 25.5231 31.6995 25.6755C31.8519 25.8278 31.9375 26.0345 31.9375 26.25ZM31.9375 29.5V31.125C31.9375 31.3405 31.8519 31.5472 31.6995 31.6995C31.5472 31.8519 31.3405 31.9375 31.125 31.9375C30.9095 31.9375 30.7028 31.8519 30.5505 31.6995C30.3981 31.5472 30.3125 31.3405 30.3125 31.125V29.5C30.3125 29.2845 30.3981 29.0778 30.5505 28.9255C30.7028 28.7731 30.9095 28.6875 31.125 28.6875C31.3405 28.6875 31.5472 28.7731 31.6995 28.9255C31.8519 29.0778 31.9375 29.2845 31.9375 29.5Z" fill="#0D0D0D"/>
</svg>
