<svg width="372" height="132" viewBox="0 0 372 132" fill="none" xmlns="http://www.w3.org/2000/svg">
<foreignObject x="240" y="0" width="132" height="132"><div xmlns="http://www.w3.org/1999/xhtml" style="backdrop-filter:blur(4px);clip-path:url(#bgblur_0_540_1508_clip_path);height:100%;width:100%"></div></foreignObject><g filter="url(#filter0_d_540_1508)" data-figma-bg-blur-radius="8">
<mask id="path-1-inside-1_540_1508" fill="white">
<path d="M298 66C298 61.5817 301.582 58 306 58H326C330.418 58 334 61.5817 334 66V86C334 90.4183 330.418 94 326 94H306C301.582 94 298 90.4183 298 86V66Z"/>
</mask>
<path d="M298 66C298 61.5817 301.582 58 306 58H326C330.418 58 334 61.5817 334 66V86C334 90.4183 330.418 94 326 94H306C301.582 94 298 90.4183 298 86V66Z" fill="white" fill-opacity="0.53" shape-rendering="crispEdges"/>
<g clip-path="url(#paint0_angular_540_1508_clip_path)" data-figma-skip-parse="true" mask="url(#path-1-inside-1_540_1508)"><g transform="matrix(0.01375 0.0165 -0.0165 0.01375 315.25 76)"><foreignObject x="-1272.73" y="-1272.73" width="2545.45" height="2545.45"><div xmlns="http://www.w3.org/1999/xhtml" style="background:conic-gradient(from 90deg,rgba(255, 255, 255, 0) 0deg,rgba(255, 255, 255, 1) 118.808deg,rgba(255, 255, 255, 1) 244.439deg,rgba(255, 255, 255, 1) 360deg);height:100%;width:100%;opacity:1"></div></foreignObject></g></g><path d="M306 58V59H326V58V57H306V58ZM334 66H333V86H334H335V66H334ZM326 94V93H306V94V95H326V94ZM298 86H299V66H298H297V86H298ZM306 94V93C302.134 93 299 89.866 299 86H298H297C297 90.9706 301.029 95 306 95V94ZM334 86H333C333 89.866 329.866 93 326 93V94V95C330.971 95 335 90.9706 335 86H334ZM326 58V59C329.866 59 333 62.134 333 66H334H335C335 61.0294 330.971 57 326 57V58ZM306 58V57C301.029 57 297 61.0294 297 66H298H299C299 62.134 302.134 59 306 59V58Z" data-figma-gradient-fill="{&#34;type&#34;:&#34;GRADIENT_ANGULAR&#34;,&#34;stops&#34;:[{&#34;color&#34;:{&#34;r&#34;:1.0,&#34;g&#34;:1.0,&#34;b&#34;:1.0,&#34;a&#34;:0.0},&#34;position&#34;:0.0},{&#34;color&#34;:{&#34;r&#34;:1.0,&#34;g&#34;:1.0,&#34;b&#34;:1.0,&#34;a&#34;:1.0},&#34;position&#34;:0.33002340793609619},{&#34;color&#34;:{&#34;r&#34;:1.0,&#34;g&#34;:1.0,&#34;b&#34;:1.0,&#34;a&#34;:1.0},&#34;position&#34;:0.67899841070175171},{&#34;color&#34;:{&#34;r&#34;:1.0,&#34;g&#34;:1.0,&#34;b&#34;:1.0,&#34;a&#34;:1.0},&#34;position&#34;:1.0}],&#34;stopsVar&#34;:[{&#34;color&#34;:{&#34;r&#34;:1.0,&#34;g&#34;:1.0,&#34;b&#34;:1.0,&#34;a&#34;:0.0},&#34;position&#34;:0.0},{&#34;color&#34;:{&#34;r&#34;:1.0,&#34;g&#34;:1.0,&#34;b&#34;:1.0,&#34;a&#34;:1.0},&#34;position&#34;:0.33002340793609619},{&#34;color&#34;:{&#34;r&#34;:1.0,&#34;g&#34;:1.0,&#34;b&#34;:1.0,&#34;a&#34;:1.0},&#34;position&#34;:0.67899841070175171},{&#34;color&#34;:{&#34;r&#34;:1.0,&#34;g&#34;:1.0,&#34;b&#34;:1.0,&#34;a&#34;:1.0},&#34;position&#34;:1.0}],&#34;transform&#34;:{&#34;m00&#34;:27.500001907348633,&#34;m01&#34;:-33.0,&#34;m02&#34;:318.0,&#34;m10&#34;:33.0,&#34;m11&#34;:27.500001907348633,&#34;m12&#34;:45.750},&#34;opacity&#34;:1.0,&#34;blendMode&#34;:&#34;NORMAL&#34;,&#34;visible&#34;:true}" mask="url(#path-1-inside-1_540_1508)"/>
<path d="M320.688 67.9375C318.719 67.9375 317.007 68.8253 316 70.3131C314.993 68.8253 313.281 67.9375 311.312 67.9375C309.821 67.9392 308.391 68.5324 307.337 69.5869C306.282 70.6415 305.689 72.0712 305.688 73.5625C305.688 76.3 307.394 79.1491 310.759 82.0291C312.302 83.3432 313.968 84.5049 315.734 85.4978C315.816 85.5418 315.907 85.5648 316 85.5648C316.093 85.5648 316.184 85.5418 316.266 85.4978C318.032 84.5049 319.698 83.3432 321.241 82.0291C324.606 79.1491 326.312 76.3 326.312 73.5625C326.311 72.0712 325.718 70.6415 324.663 69.5869C323.609 68.5324 322.179 67.9392 320.688 67.9375ZM316 84.3541C314.462 83.4663 306.812 78.7863 306.812 73.5625C306.814 72.3694 307.288 71.2255 308.132 70.3819C308.976 69.5382 310.119 69.0637 311.312 69.0625C313.214 69.0625 314.81 70.0778 315.48 71.7128C315.522 71.816 315.594 71.9042 315.687 71.9663C315.779 72.0284 315.888 72.0616 316 72.0616C316.112 72.0616 316.221 72.0284 316.313 71.9663C316.406 71.9042 316.478 71.816 316.52 71.7128C317.19 70.0778 318.786 69.0625 320.688 69.0625C321.881 69.0637 323.024 69.5382 323.868 70.3819C324.712 71.2255 325.186 72.3694 325.188 73.5625C325.188 78.7863 317.538 83.4663 316 84.3541Z" fill="#282828"/>
</g>
<defs>
<filter id="filter0_d_540_1508" x="240" y="0" width="132" height="132" filterUnits="userSpaceOnUse" color-interpolation-filters="sRGB">
<feFlood flood-opacity="0" result="BackgroundImageFix"/>
<feColorMatrix in="SourceAlpha" type="matrix" values="0 0 0 0 0 0 0 0 0 0 0 0 0 0 0 0 0 0 127 0" result="hardAlpha"/>
<feOffset dx="-10" dy="-10"/>
<feGaussianBlur stdDeviation="24"/>
<feComposite in2="hardAlpha" operator="out"/>
<feColorMatrix type="matrix" values="0 0 0 0 0 0 0 0 0 0 0 0 0 0 0 0 0 0 0.02 0"/>
<feBlend mode="normal" in2="BackgroundImageFix" result="effect1_dropShadow_540_1508"/>
<feBlend mode="normal" in="SourceGraphic" in2="effect1_dropShadow_540_1508" result="shape"/>
</filter>
<clipPath id="bgblur_0_540_1508_clip_path" transform="translate(-240 0)"><path d="M298 66C298 61.5817 301.582 58 306 58H326C330.418 58 334 61.5817 334 66V86C334 90.4183 330.418 94 326 94H306C301.582 94 298 90.4183 298 86V66Z"/>
</clipPath><clipPath id="paint0_angular_540_1508_clip_path"><path d="M306 58V59H326V58V57H306V58ZM334 66H333V86H334H335V66H334ZM326 94V93H306V94V95H326V94ZM298 86H299V66H298H297V86H298ZM306 94V93C302.134 93 299 89.866 299 86H298H297C297 90.9706 301.029 95 306 95V94ZM334 86H333C333 89.866 329.866 93 326 93V94V95C330.971 95 335 90.9706 335 86H334ZM326 58V59C329.866 59 333 62.134 333 66H334H335C335 61.0294 330.971 57 326 57V58ZM306 58V57C301.029 57 297 61.0294 297 66H298H299C299 62.134 302.134 59 306 59V58Z" mask="url(#path-1-inside-1_540_1508)"/></clipPath></defs>
</svg>
