<svg width="48" height="48" viewBox="0 0 48 48" fill="none" xmlns="http://www.w3.org/2000/svg">
<rect x="0.5" y="0.5" width="47" height="47" rx="11.5" fill="#F6F7F9"/>
<rect x="0.5" y="0.5" width="47" height="47" rx="11.5" stroke="white"/>
<path d="M24.7241 23.5089C24.8044 23.6273 24.8545 23.7636 24.87 23.9058C24.8854 24.0481 24.8657 24.192 24.8127 24.3248L23.0627 28.6998C22.9761 28.9154 22.8074 29.0877 22.5938 29.1789C22.3801 29.27 22.139 29.2726 21.9235 29.186C21.708 29.0994 21.5357 28.9308 21.4445 28.7171C21.3533 28.5035 21.3508 28.2624 21.4373 28.0469L22.7072 24.875H20.5C20.3566 24.8752 20.2153 24.8402 20.0886 24.7731C19.9619 24.7059 19.8537 24.6086 19.7734 24.4898C19.6931 24.3709 19.6433 24.2342 19.6283 24.0916C19.6133 23.9489 19.6336 23.8048 19.6873 23.6719L21.4373 19.2969C21.4804 19.1902 21.5441 19.093 21.6248 19.0109C21.7054 18.9288 21.8015 18.8633 21.9074 18.8183C22.0133 18.7734 22.1271 18.7497 22.2422 18.7486C22.3572 18.7476 22.4714 18.7693 22.5781 18.8123C22.6848 18.8554 22.782 18.9191 22.8641 18.9998C22.9462 19.0804 23.0117 19.1765 23.0567 19.2824C23.1016 19.3883 23.1253 19.5021 23.1264 19.6172C23.1274 19.7322 23.1057 19.8464 23.0627 19.9531L21.7928 23.125H24C24.1429 23.125 24.2835 23.16 24.4098 23.2269C24.536 23.2939 24.6439 23.3907 24.7241 23.5089ZM37.125 19.4752V28.375C37.125 29.0712 36.8484 29.7389 36.3562 30.2312C35.8639 30.7234 35.1962 31 34.5 31C33.8038 31 33.1361 30.7234 32.6438 30.2312C32.1516 29.7389 31.875 29.0712 31.875 28.375V24C31.875 23.7679 31.7828 23.5454 31.6187 23.3813C31.4546 23.2172 31.2321 23.125 31 23.125H29.25V32.75H31C31.2321 32.75 31.4546 32.8422 31.6187 33.0063C31.7828 33.1704 31.875 33.3929 31.875 33.625C31.875 33.8571 31.7828 34.0796 31.6187 34.2437C31.4546 34.4078 31.2321 34.5 31 34.5H13.5C13.2679 34.5 13.0454 34.4078 12.8813 34.2437C12.7172 34.0796 12.625 33.8571 12.625 33.625C12.625 33.3929 12.7172 33.1704 12.8813 33.0063C13.0454 32.8422 13.2679 32.75 13.5 32.75H15.25V16.125C15.25 15.4288 15.5266 14.7611 16.0188 14.2688C16.5111 13.7766 17.1788 13.5 17.875 13.5H26.625C27.3212 13.5 27.9889 13.7766 28.4812 14.2688C28.9734 14.7611 29.25 15.4288 29.25 16.125V21.375H31C31.6962 21.375 32.3639 21.6516 32.8562 22.1438C33.3484 22.6361 33.625 23.3038 33.625 24V28.375C33.625 28.6071 33.7172 28.8296 33.8813 28.9937C34.0454 29.1578 34.2679 29.25 34.5 29.25C34.7321 29.25 34.9546 29.1578 35.1187 28.9937C35.2828 28.8296 35.375 28.6071 35.375 28.375V19.4752C35.3743 19.2442 35.2823 19.0228 35.1191 18.8594L33.0059 16.7441C32.8418 16.5799 32.7495 16.3572 32.7495 16.125C32.7495 15.8928 32.8418 15.6701 33.0059 15.5059C33.1701 15.3418 33.3928 15.2495 33.625 15.2495C33.8572 15.2495 34.0799 15.3418 34.2441 15.5059L36.3594 17.6191C36.6033 17.8625 36.7965 18.1519 36.9279 18.4705C37.0593 18.7891 37.1263 19.1305 37.125 19.4752ZM27.5 32.75V16.125C27.5 15.8929 27.4078 15.6704 27.2437 15.5063C27.0796 15.3422 26.8571 15.25 26.625 15.25H17.875C17.6429 15.25 17.4204 15.3422 17.2563 15.5063C17.0922 15.6704 17 15.8929 17 16.125V32.75H27.5Z" fill="#0D0D0D"/>
</svg>
