<svg width="14" height="14" viewBox="0 0 14 14" fill="none" xmlns="http://www.w3.org/2000/svg">
<path d="M11.6663 5.83329C11.6663 8.74588 8.43526 11.7792 7.35026 12.716C7.24918 12.792 7.12614 12.8331 6.99967 12.8331C6.87321 12.8331 6.75017 12.792 6.64909 12.716C5.56409 11.7792 2.33301 8.74588 2.33301 5.83329C2.33301 4.59562 2.82467 3.40863 3.69984 2.53346C4.57501 1.65829 5.762 1.16663 6.99967 1.16663C8.23735 1.16663 9.42433 1.65829 10.2995 2.53346C11.1747 3.40863 11.6663 4.59562 11.6663 5.83329Z" stroke="#0E0E0E" stroke-linecap="round" stroke-linejoin="round"/>
<path d="M7 7.58331C7.9665 7.58331 8.75 6.79981 8.75 5.83331C8.75 4.86681 7.9665 4.08331 7 4.08331C6.0335 4.08331 5.25 4.86681 5.25 5.83331C5.25 6.79981 6.0335 7.58331 7 7.58331Z" stroke="#0E0E0E" stroke-linecap="round" stroke-linejoin="round"/>
</svg>
