<svg width="58" height="22" viewBox="0 0 58 22" fill="none" xmlns="http://www.w3.org/2000/svg">
<rect x="0.25" y="0.25" width="57.5" height="21.5" rx="10.75" fill="#F3F4F6"/>
<rect x="0.25" y="0.25" width="57.5" height="21.5" rx="10.75" stroke="#858585" stroke-width="0.5"/>
<path d="M29.669 11.2319L25.294 15.6069C25.2318 15.6648 25.1495 15.6964 25.0645 15.6949C24.9795 15.6934 24.8984 15.6589 24.8383 15.5988C24.7782 15.5387 24.7437 15.4576 24.7422 15.3726C24.7407 15.2876 24.7723 15.2053 24.8303 15.1431L28.9728 11L24.8303 6.85687C24.7723 6.79467 24.7407 6.7124 24.7422 6.62739C24.7437 6.54238 24.7782 6.46128 24.8383 6.40116C24.8984 6.34104 24.9795 6.3066 25.0645 6.3051C25.1495 6.3036 25.2318 6.33516 25.294 6.39312L29.669 10.7681C29.7305 10.8296 29.765 10.913 29.765 11C29.765 11.0869 29.7305 11.1703 29.669 11.2319ZM34.044 10.7681L29.669 6.39312C29.6068 6.33516 29.5245 6.3036 29.4395 6.3051C29.3545 6.3066 29.2734 6.34104 29.2133 6.40116C29.1532 6.46128 29.1187 6.54238 29.1172 6.62739C29.1157 6.7124 29.1473 6.79467 29.2053 6.85687L33.3478 11L29.2053 15.1431C29.173 15.1732 29.1472 15.2094 29.1292 15.2496C29.1113 15.2899 29.1016 15.3333 29.1009 15.3774C29.1001 15.4214 29.1082 15.4652 29.1247 15.5061C29.1412 15.5469 29.1658 15.584 29.1969 15.6152C29.2281 15.6464 29.2652 15.6709 29.3061 15.6874C29.3469 15.7039 29.3907 15.712 29.4347 15.7113C29.4788 15.7105 29.5222 15.7008 29.5625 15.6829C29.6027 15.665 29.639 15.6391 29.669 15.6069L34.044 11.2319C34.1055 11.1703 34.14 11.0869 34.14 11C34.14 10.913 34.1055 10.8296 34.044 10.7681Z" fill="#3B3B3B"/>
</svg>
