<svg width="54" height="54" viewBox="0 0 54 54" fill="none" xmlns="http://www.w3.org/2000/svg">
<rect x="0.25" y="0.25" width="53.5" height="53.5" rx="5.75" stroke="url(#paint0_linear_540_720)" stroke-opacity="0.7" stroke-width="0.5"/>
<g filter="url(#filter0_f_540_720)">
<path d="M30.75 27C30.75 27.7417 30.5301 28.4667 30.118 29.0834C29.706 29.7001 29.1203 30.1807 28.4351 30.4645C27.7498 30.7484 26.9958 30.8226 26.2684 30.6779C25.541 30.5333 24.8728 30.1761 24.3483 29.6517C23.8239 29.1272 23.4667 28.459 23.3221 27.7316C23.1774 27.0042 23.2516 26.2502 23.5355 25.5649C23.8193 24.8797 24.2999 24.294 24.9166 23.882C25.5333 23.4699 26.2583 23.25 27 23.25C27.9946 23.25 28.9484 23.6451 29.6517 24.3483C30.3549 25.0516 30.75 26.0054 30.75 27ZM38.25 21V33C38.25 33.1989 38.171 33.3897 38.0303 33.5303C37.8897 33.671 37.6989 33.75 37.5 33.75H16.5C16.3011 33.75 16.1103 33.671 15.9697 33.5303C15.829 33.3897 15.75 33.1989 15.75 33V21C15.75 20.8011 15.829 20.6103 15.9697 20.4697C16.1103 20.329 16.3011 20.25 16.5 20.25H37.5C37.6989 20.25 37.8897 20.329 38.0303 20.4697C38.171 20.6103 38.25 20.8011 38.25 21ZM36.75 25.3453C35.8984 25.0935 35.1233 24.6326 34.4953 24.0047C33.8674 23.3767 33.4065 22.6016 33.1547 21.75H20.8453C20.5935 22.6016 20.1326 23.3767 19.5047 24.0047C18.8767 24.6326 18.1016 25.0935 17.25 25.3453V28.6547C18.1016 28.9065 18.8767 29.3674 19.5047 29.9953C20.1326 30.6233 20.5935 31.3984 20.8453 32.25H33.1547C33.4065 31.3984 33.8674 30.6233 34.4953 29.9953C35.1233 29.3674 35.8984 28.9065 36.75 28.6547V25.3453Z" fill="#3B3B3B"/>
</g>
<defs>
<filter id="filter0_f_540_720" x="11" y="11" width="32" height="32" filterUnits="userSpaceOnUse" color-interpolation-filters="sRGB">
<feFlood flood-opacity="0" result="BackgroundImageFix"/>
<feBlend mode="normal" in="SourceGraphic" in2="BackgroundImageFix" result="shape"/>
<feGaussianBlur stdDeviation="2" result="effect1_foregroundBlur_540_720"/>
</filter>
<linearGradient id="paint0_linear_540_720" x1="54" y1="27" x2="0" y2="27" gradientUnits="userSpaceOnUse">
<stop stop-color="#F9F9FB"/>
<stop offset="1" stop-color="white"/>
</linearGradient>
</defs>
</svg>
