<svg width="359" height="75" viewBox="0 0 359 75" fill="none" xmlns="http://www.w3.org/2000/svg">
<ellipse cx="179.429" cy="46.2856" rx="179.429" ry="28" fill="#FAFAFA"/>
<rect y="28.5713" width="358.857" height="18.2857" fill="#FAFAFA"/>
<path d="M179.429 0.571289C228.956 0.571295 273.783 3.70443 306.216 8.76562C322.437 11.2969 335.531 14.3072 344.559 17.6377C349.075 19.3042 352.54 21.0386 354.865 22.8115C357.202 24.5936 358.286 26.3329 358.286 28C358.286 29.6671 357.202 31.4064 354.865 33.1885C352.54 34.9614 349.075 36.6958 344.559 38.3623C335.531 41.6928 322.437 44.7031 306.216 47.2344C273.783 52.2956 228.956 55.4287 179.429 55.4287C129.901 55.4287 85.0746 52.2956 52.6416 47.2344C36.4206 44.7031 23.3251 41.6929 14.2979 38.3623C9.78128 36.6959 6.31695 34.9613 3.99219 33.1885C1.65529 31.4064 0.57129 29.6671 0.571289 28C0.571289 26.3329 1.65529 24.5936 3.99219 22.8115C6.31695 21.0387 9.78128 19.3041 14.2979 17.6377C23.3251 14.3071 36.4206 11.2969 52.6416 8.76562C85.0746 3.70443 129.901 0.571289 179.429 0.571289Z" fill="white" stroke="#F5F5F5" stroke-width="1.14286"/>
</svg>
