<svg width="54" height="54" viewBox="0 0 54 54" fill="none" xmlns="http://www.w3.org/2000/svg">
<rect x="0.25" y="0.25" width="53.5" height="53.5" rx="5.75" stroke="url(#paint0_linear_523_527)" stroke-opacity="0.7" stroke-width="0.5"/>
<g filter="url(#filter0_f_523_527)">
<path d="M36.7503 24.0001C36.7514 25.1226 36.4725 26.2278 35.9389 27.2154C35.4053 28.2031 34.6338 29.042 33.6942 29.6564C32.7547 30.2707 31.6767 30.641 30.558 30.7337C29.4393 30.8265 28.315 30.6388 27.2871 30.1876L22.4065 35.8332C22.3953 35.8463 22.3821 35.8604 22.37 35.8726C21.8073 36.4352 21.0441 36.7513 20.2484 36.7513C19.4526 36.7513 18.6895 36.4352 18.1268 35.8726C17.5642 35.3099 17.248 34.5467 17.248 33.751C17.248 32.9553 17.5642 32.1921 18.1268 31.6294C18.14 31.6172 18.1531 31.6041 18.1671 31.5929L23.8128 26.7132C23.3069 25.5561 23.1355 24.2805 23.3179 23.0309C23.5003 21.7814 24.0292 20.608 24.8446 19.6438C25.6601 18.6796 26.7294 17.9632 27.9313 17.5759C29.1333 17.1886 30.4197 17.1459 31.6446 17.4526C31.7709 17.4842 31.8868 17.5482 31.9808 17.6382C32.0749 17.7282 32.1439 17.8411 32.1811 17.9659C32.2182 18.0907 32.2223 18.2229 32.1929 18.3498C32.1634 18.4766 32.1014 18.5935 32.0131 18.6891L28.5003 22.5001L29.0309 24.9704L31.5003 25.5001L35.3112 21.9826C35.4068 21.8942 35.5238 21.8322 35.6506 21.8028C35.7774 21.7733 35.9097 21.7774 36.0344 21.8146C36.1592 21.8517 36.2721 21.9207 36.3621 22.0148C36.4521 22.1089 36.5161 22.2247 36.5478 22.351C36.6824 22.8904 36.7504 23.4442 36.7503 24.0001Z" fill="#3B3B3B"/>
</g>
<defs>
<filter id="filter0_f_523_527" x="11" y="11" width="32" height="32" filterUnits="userSpaceOnUse" color-interpolation-filters="sRGB">
<feFlood flood-opacity="0" result="BackgroundImageFix"/>
<feBlend mode="normal" in="SourceGraphic" in2="BackgroundImageFix" result="shape"/>
<feGaussianBlur stdDeviation="2" result="effect1_foregroundBlur_523_527"/>
</filter>
<linearGradient id="paint0_linear_523_527" x1="54" y1="27" x2="0" y2="27" gradientUnits="userSpaceOnUse">
<stop stop-color="#F9F9FB"/>
<stop offset="1" stop-color="white"/>
</linearGradient>
</defs>
</svg>
