<svg width="14" height="14" viewBox="0 0 14 14" fill="none" xmlns="http://www.w3.org/2000/svg">
<path d="M12.8132 6.28085L10.3523 8.40436L11.102 11.5801C11.1434 11.7525 11.1327 11.9332 11.0714 12.0996C11.0101 12.2659 10.9008 12.4104 10.7575 12.5147C10.6141 12.6189 10.443 12.6784 10.2659 12.6855C10.0887 12.6926 9.91344 12.6471 9.76217 12.5546L7.00045 10.8549L4.23709 12.5546C4.08584 12.6465 3.91078 12.6916 3.73394 12.6843C3.5571 12.6769 3.38639 12.6174 3.24331 12.5132C3.10024 12.409 2.99119 12.2648 2.9299 12.0987C2.86861 11.9327 2.85782 11.7522 2.89889 11.5801L3.65139 8.40436L1.19045 6.28085C1.05663 6.16519 0.959851 6.01267 0.912195 5.84233C0.864539 5.672 0.868121 5.4914 0.922494 5.32309C0.976867 5.15478 1.07962 5.00621 1.21792 4.89595C1.35623 4.78569 1.52395 4.71862 1.70014 4.70311L4.9267 4.4428L6.17139 1.43061C6.23876 1.26645 6.35343 1.12603 6.50081 1.0272C6.6482 0.928378 6.82164 0.87561 6.99909 0.87561C7.17654 0.87561 7.34998 0.928378 7.49736 1.0272C7.64474 1.12603 7.75941 1.26645 7.82678 1.43061L9.07092 4.4428L12.2975 4.70311C12.474 4.71804 12.6422 4.78474 12.781 4.89485C12.9199 5.00496 13.0231 5.15358 13.0778 5.3221C13.1325 5.49061 13.1363 5.67152 13.0886 5.84217C13.041 6.01282 12.944 6.1656 12.8099 6.28139L12.8132 6.28085Z" fill="#FFDD00"/>
</svg>
