<svg width="46" height="46" viewBox="0 0 46 46" fill="none" xmlns="http://www.w3.org/2000/svg">
<rect x="0.5" y="0.5" width="45" height="45" rx="11.5" fill="#F6F7F9"/>
<rect x="0.5" y="0.5" width="45" height="45" rx="11.5" stroke="white"/>
<path d="M21.375 18.125C21.375 17.8036 21.4703 17.4894 21.6489 17.2222C21.8274 16.955 22.0812 16.7467 22.3781 16.6237C22.6751 16.5007 23.0018 16.4685 23.317 16.5312C23.6322 16.5939 23.9218 16.7487 24.149 16.976C24.3763 17.2032 24.5311 17.4928 24.5938 17.808C24.6565 18.1232 24.6243 18.4499 24.5013 18.7469C24.3783 19.0438 24.17 19.2976 23.9028 19.4761C23.6356 19.6547 23.3214 19.75 23 19.75C22.569 19.75 22.1557 19.5788 21.851 19.274C21.5462 18.9693 21.375 18.556 21.375 18.125ZM16.5 18.125C16.5 16.4011 17.1848 14.7478 18.4038 13.5288C19.6228 12.3098 21.2761 11.625 23 11.625C24.7239 11.625 26.3772 12.3098 27.5962 13.5288C28.8152 14.7478 29.5 16.4011 29.5 18.125C29.5 24.2137 23.652 27.6252 23.4062 27.7684C23.2835 27.8385 23.1445 27.8755 23.003 27.8755C22.8616 27.8755 22.7226 27.8385 22.5998 27.7684C22.348 27.6252 16.5 24.2188 16.5 18.125ZM18.125 18.125C18.125 22.4109 21.765 25.2557 23 26.0977C24.234 25.2567 27.875 22.4109 27.875 18.125C27.875 16.8321 27.3614 15.5921 26.4471 14.6779C25.5329 13.7636 24.2929 13.25 23 13.25C21.7071 13.25 20.4671 13.7636 19.5529 14.6779C18.6386 15.5921 18.125 16.8321 18.125 18.125ZM30.5938 24.9937C30.3939 24.9276 30.176 24.9418 29.9863 25.0332C29.7966 25.1246 29.6497 25.2861 29.5768 25.4837C29.5038 25.6812 29.5104 25.8994 29.5952 26.0922C29.6799 26.285 29.8363 26.4373 30.0312 26.5171C31.708 27.1377 32.75 27.9684 32.75 28.6875C32.75 30.0444 29.0409 31.9375 23 31.9375C16.9591 31.9375 13.25 30.0444 13.25 28.6875C13.25 27.9684 14.292 27.1377 15.9688 26.5181C16.1637 26.4383 16.3201 26.286 16.4048 26.0932C16.4896 25.9004 16.4962 25.6822 16.4232 25.4847C16.3503 25.2871 16.2034 25.1256 16.0137 25.0342C15.824 24.9428 15.6061 24.9286 15.4062 24.9947C12.9677 25.8935 11.625 27.2057 11.625 28.6875C11.625 31.8542 17.4862 33.5625 23 33.5625C28.5138 33.5625 34.375 31.8542 34.375 28.6875C34.375 27.2057 33.0323 25.8935 30.5938 24.9937Z" fill="#0D0D0D"/>
</svg>
